<svg xmlns="http://www.w3.org/2000/svg" version="1.0" preserveAspectRatio="xMidYMid meet"  viewBox="19.26 413.07 340.74 200" width="140" height="100"><g transform="translate(0.000000,1080.000000) scale(0.100000,-0.100000)" fill="#000000" stroke="none">

                  <path d="M1540 6631 c-134 -59 -342 -148 -378 -161 -18 -7 -39 -25 -47 -40 -13 -26 -19 -28 -90 -32 -66 -3 -78 -7 -102 -31 -25 -25 -28 -35 -30 -110 -4 -135 23 -167 140 -167 63 0 65 0 70 -30 8 -39 37 -66 84 -80 21 -6 94 -34 163 -63 l124 -52 13 -64 c16 -80 28 -95 69 -88 29 5 34 2 49 -30 31 -66 22 -135 -27 -204 -6 -9 -8 -24 -5 -33 5 -13 22 -16 92 -16 47 0 85 -2 85 -5 0 -3 -5 -14 -12 -24 -18 -29 4 -48 65 -55 97 -13 108 -35 112 -215 2 -124 6 -150 44 -295 23 -87 41 -168 39 -179 -7 -52 -147 -88 -413 -107 -116 -9 -154 -15 -169 -28 -32 -29 -76 -105 -76 -133 0 -37 46 -103 151 -217 l49 -52 549 2 c524 3 550 4 570 22 42 38 21 149 -64 331 -36 77 -38 85 -39 190 -1 61 5 193 13 295 16 220 9 276 -64 488 -51 149 -55 189 -22 219 33 31 133 60 250 74 153 17 169 28 126 83 -31 39 -14 50 91 56 102 7 135 26 146 87 5 28 10 33 35 33 41 0 79 20 95 51 21 41 20 319 -1 360 -17 32 -49 49 -96 49 -25 0 -29 4 -29 26 0 16 -13 39 -34 60 l-34 34 -104 0 c-99 0 -106 1 -128 25 -23 25 -26 25 -184 25 -139 0 -167 3 -205 20 -41 19 -65 20 -415 19 l-371 0 -85 -38z m250 -41 c0 -24 -11 -34 -74 -68 -88 -48 -90 -54 -96 -285 -3 -131 -9 -209 -17 -223 -16 -28 -80 -84 -96 -84 -7 0 -84 29 -172 65 l-160 65 -3 170 c-2 169 -2 170 20 179 85 34 346 147 418 180 31 14 66 21 113 21 60 0 67 -2 67 -20z m605 -5 c55 -23 73 -25 211 -25 147 0 151 -1 174 -25 21 -23 31 -25 134 -27 l111 -3 0 -275 0 -275 -85 -5 c-70 -4 -93 -10 -132 -33 -36 -21 -48 -35 -48 -52 0 -13 5 -27 10 -30 17 -11 1 -25 -28 -25 -15 0 -56 9 -90 20 -228 71 -501 -63 -679 -334 -37 -55 -68 -103 -69 -104 -4 -6 -75 22 -71 28 38 66 57 170 43 245 -4 19 -20 50 -36 68 -41 47 -91 61 -194 55 -93 -6 -97 -4 -95 55 0 26 9 38 42 62 24 18 52 52 69 84 28 52 28 56 28 230 0 97 3 186 6 199 5 15 26 33 66 53 61 31 98 75 98 117 l0 22 238 0 c229 0 239 -1 297 -25z m770 -355 l0 -155 -32 -3 -33 -3 0 161 0 161 33 -3 32 -3 0 -155z m-2163 53 c2 -37 7 -49 22 -51 26 -5 40 13 41 56 1 26 6 38 18 40 15 3 17 -7 17 -83 l0 -86 -67 3 -68 3 -3 69 c-3 78 1 96 22 96 11 0 16 -14 18 -47z m1491 -532 c-106 -51 -125 -115 -74 -261 16 -47 28 -86 27 -87 -2 -2 -23 4 -49 13 -62 21 -92 16 -92 -16 0 -22 9 -28 87 -55 l88 -30 11 -53 c7 -28 10 -54 7 -57 -2 -3 -37 7 -78 21 -88 30 -115 29 -115 -6 0 -23 9 -28 100 -60 l100 -35 3 -52 c2 -29 -1 -53 -6 -53 -5 0 -42 11 -82 25 -90 31 -107 31 -116 3 -9 -29 9 -41 112 -74 l84 -28 0 -47 c0 -26 -4 -50 -9 -53 -4 -3 -43 6 -86 20 -71 25 -78 25 -93 10 -27 -27 -4 -47 91 -79 l87 -29 0 -110 c0 -99 -2 -109 -17 -104 -29 8 -200 27 -313 34 -86 6 -104 10 -101 22 11 38 -2 123 -39 264 -36 137 -40 165 -40 270 0 64 -5 137 -11 162 -11 44 -11 45 42 130 120 192 335 343 489 344 l55 0 -62 -29z m-726 -43 c32 -16 57 -88 49 -139 -12 -73 -20 -80 -84 -77 -45 2 -56 6 -52 18 12 42 10 140 -3 173 -9 19 -14 37 -11 39 7 7 79 -3 101 -14z m403 -1189 c158 -11 341 -36 351 -47 31 -39 101 -244 92 -269 -4 -10 -119 -13 -529 -13 l-524 0 -75 90 c-41 50 -75 99 -75 110 0 11 13 35 30 53 l29 34 128 7 c70 4 173 15 228 25 123 22 162 24 345 10z"></path>
                 </g></svg>