<svg xmlns="http://www.w3.org/2000/svg" version="1.0" preserveAspectRatio="xMidYMid meet" viewBox="89.26 413.07 900.74 254.93" width="140"
                  height="42"><g transform="translate(0.000000,1080.000000) scale(0.100000,-0.100000)" fill="#000000" stroke="none"><path d="M1540 6631 c-134 -59 -342 -148 -378 -161 -18 -7 -39 -25 -47 -40 -13 -26 -19 -28 -90 -32 -66 -3 -78 -7 -102 -31 -25 -25 -28 -35 -30 -110 -4 -135 23 -167 140 -167 63 0 65 0 70 -30 8 -39 37 -66 84 -80 21 -6 94 -34 163 -63 l124 -52 13 -64 c16 -80 28 -95 69 -88 29 5 34 2 49 -30 31 -66 22 -135 -27 -204 -6 -9 -8 -24 -5 -33 5 -13 22 -16 92 -16 47 0 85 -2 85 -5 0 -3 -5 -14 -12 -24 -18 -29 4 -48 65 -55 97 -13 108 -35 112 -215 2 -124 6 -150 44 -295 23 -87 41 -168 39 -179 -7 -52 -147 -88 -413 -107 -116 -9 -154 -15 -169 -28 -32 -29 -76 -105 -76 -133 0 -37 46 -103 151 -217 l49 -52 549 2 c524 3 550 4 570 22 42 38 21 149 -64 331 -36 77 -38 85 -39 190 -1 61 5 193 13 295 16 220 9 276 -64 488 -51 149 -55 189 -22 219 33 31 133 60 250 74 153 17 169 28 126 83 -31 39 -14 50 91 56 102 7 135 26 146 87 5 28 10 33 35 33 41 0 79 20 95 51 21 41 20 319 -1 360 -17 32 -49 49 -96 49 -25 0 -29 4 -29 26 0 16 -13 39 -34 60 l-34 34 -104 0 c-99 0 -106 1 -128 25 -23 25 -26 25 -184 25 -139 0 -167 3 -205 20 -41 19 -65 20 -415 19 l-371 0 -85 -38z m250 -41 c0 -24 -11 -34 -74 -68 -88 -48 -90 -54 -96 -285 -3 -131 -9 -209 -17 -223 -16 -28 -80 -84 -96 -84 -7 0 -84 29 -172 65 l-160 65 -3 170 c-2 169 -2 170 20 179 85 34 346 147 418 180 31 14 66 21 113 21 60 0 67 -2 67 -20z m605 -5 c55 -23 73 -25 211 -25 147 0 151 -1 174 -25 21 -23 31 -25 134 -27 l111 -3 0 -275 0 -275 -85 -5 c-70 -4 -93 -10 -132 -33 -36 -21 -48 -35 -48 -52 0 -13 5 -27 10 -30 17 -11 1 -25 -28 -25 -15 0 -56 9 -90 20 -228 71 -501 -63 -679 -334 -37 -55 -68 -103 -69 -104 -4 -6 -75 22 -71 28 38 66 57 170 43 245 -4 19 -20 50 -36 68 -41 47 -91 61 -194 55 -93 -6 -97 -4 -95 55 0 26 9 38 42 62 24 18 52 52 69 84 28 52 28 56 28 230 0 97 3 186 6 199 5 15 26 33 66 53 61 31 98 75 98 117 l0 22 238 0 c229 0 239 -1 297 -25z m770 -355 l0 -155 -32 -3 -33 -3 0 161 0 161 33 -3 32 -3 0 -155z m-2163 53 c2 -37 7 -49 22 -51 26 -5 40 13 41 56 1 26 6 38 18 40 15 3 17 -7 17 -83 l0 -86 -67 3 -68 3 -3 69 c-3 78 1 96 22 96 11 0 16 -14 18 -47z m1491 -532 c-106 -51 -125 -115 -74 -261 16 -47 28 -86 27 -87 -2 -2 -23 4 -49 13 -62 21 -92 16 -92 -16 0 -22 9 -28 87 -55 l88 -30 11 -53 c7 -28 10 -54 7 -57 -2 -3 -37 7 -78 21 -88 30 -115 29 -115 -6 0 -23 9 -28 100 -60 l100 -35 3 -52 c2 -29 -1 -53 -6 -53 -5 0 -42 11 -82 25 -90 31 -107 31 -116 3 -9 -29 9 -41 112 -74 l84 -28 0 -47 c0 -26 -4 -50 -9 -53 -4 -3 -43 6 -86 20 -71 25 -78 25 -93 10 -27 -27 -4 -47 91 -79 l87 -29 0 -110 c0 -99 -2 -109 -17 -104 -29 8 -200 27 -313 34 -86 6 -104 10 -101 22 11 38 -2 123 -39 264 -36 137 -40 165 -40 270 0 64 -5 137 -11 162 -11 44 -11 45 42 130 120 192 335 343 489 344 l55 0 -62 -29z m-726 -43 c32 -16 57 -88 49 -139 -12 -73 -20 -80 -84 -77 -45 2 -56 6 -52 18 12 42 10 140 -3 173 -9 19 -14 37 -11 39 7 7 79 -3 101 -14z m403 -1189 c158 -11 341 -36 351 -47 31 -39 101 -244 92 -269 -4 -10 -119 -13 -529 -13 l-524 0 -75 90 c-41 50 -75 99 -75 110 0 11 13 35 30 53 l29 34 128 7 c70 4 173 15 228 25 123 22 162 24 345 10z"></path><path fill="black" d="M1246 6354 c-12 -12 -16 -37 -16 -108 0 -104 14 -140 47 -120 15 9 18 27 21 114 3 121 -12 155 -52 114z"></path><path fill="black" d="M1361 6356 c-8 -9 -11 -49 -9 -116 2 -83 6 -105 20 -113 12 -8 21 -7 32 2 13 11 16 35 16 117 0 92 -2 104 -19 114 -25 13 -26 13 -40 -4z"></path><path fill="black" d="M1481 6356 c-8 -9 -11 -49 -9 -116 3 -87 6 -105 21 -114 33 -20 47 16 47 120 0 71 -4 96 -16 108 -19 20 -28 20 -43 2z"></path><path fill="black" d="M2004 6480 c-12 -4 -31 -21 -43 -36 -19 -25 -21 -39 -21 -180 l0 -154 29 -32 c29 -33 30 -33 135 -36 l105 -4 3 -46 3 -47 178 -5 c98 -3 185 -1 193 3 9 5 14 24 14 52 l0 45 75 0 c143 0 165 31 165 225 0 86 -4 136 -14 160 -27 64 -34 65 -438 64 -200 0 -373 -4 -384 -9z m754 -72 c8 -8 12 -54 12 -143 0 -89 -4 -135 -12 -143 -7 -7 -42 -12 -85 -12 l-73 0 0 43 c0 24 -5 48 -12 55 -8 8 -63 12 -183 12 -120 0 -175 -4 -183 -12 -7 -7 -12 -32 -12 -55 l0 -44 -97 3 -98 3 -3 144 c-2 109 1 146 10 153 22 13 722 10 736 -4z m-386 -294 c6 -71 68 -68 68 3 l0 34 48 -3 47 -3 3 -49 c6 -99 10 -97 -136 -94 l-127 3 -3 59 c-4 80 -1 86 52 86 44 0 45 0 48 -36z"></path><path fill="black" d="M1925 5867 c-25 -35 -3 -47 89 -47 85 0 107 9 99 40 -6 22 -38 30 -116 29 -46 -1 -60 -5 -72 -22z"></path><path fill="#021E34" d="M5319 5986 c-69 -19 -165 -74 -203 -116 -112 -125 -145 -299 -84 -455 29 -76 131 -184 204 -216 289 -125 599 17 654 299 53 270 -155 504 -444 501 -44 0 -102 -6 -127 -13z m247 -174 c52 -26 108 -88 125 -138 7 -22 13 -68 13 -104 -2 -150 -104 -251 -253 -251 -111 -1 -198 54 -239 150 -19 45 -21 153 -3 205 23 68 93 132 171 157 41 14 142 3 186 -19z"></path><path fill="#6B0000" d="M6940 5981 c-83 -27 -133 -56 -187 -108 -183 -179 -153 -496 61 -642 79 -54 150 -74 266 -74 85 0 116 5 165 23 167 63 269 196 282 365 16 207 -115 386 -322 441 -70 19 -198 17 -265 -5z m255 -169 c93 -47 140 -126 139 -237 0 -110 -44 -184 -139 -234 -84 -44 -239 -18 -302 50 -66 72 -87 216 -44 301 38 72 87 115 161 139 41 14 142 3 185 -19z"></path><path fill="#6B0000" d="M7900 5981 c-171 -55 -274 -170 -303 -335 -34 -202 78 -390 278 -466 49 -18 80 -23 165 -23 116 0 187 20 266 74 214 146 245 463 61 642 -116 112 -312 158 -467 108z m256 -169 c52 -26 108 -88 125 -138 20 -59 16 -160 -10 -215 -44 -92 -120 -139 -226 -139 -115 0 -200 52 -241 149 -20 46 -23 154 -5 205 23 68 93 132 171 157 41 14 142 3 186 -19z"></path><path fill="#6B0000" d="M9423 5979 c-78 -25 -140 -71 -170 -129 -21 -38 -24 -56 -21 -116 6 -125 61 -173 268 -229 143 -38 184 -56 194 -80 20 -52 -11 -100 -70 -111 -20 -4 -74 -4 -120 -1 -68 4 -98 11 -157 39 l-73 35 -27 -60 c-15 -34 -26 -68 -25 -76 4 -20 78 -57 158 -78 91 -23 248 -23 320 1 122 41 190 125 190 233 0 71 -18 111 -71 157 -44 37 -78 50 -255 96 -111 29 -144 50 -144 93 0 95 156 126 312 63 35 -14 66 -22 70 -18 4 4 19 36 32 71 l25 62 -52 23 c-113 50 -272 61 -384 25z"></path><path fill="#021E34" d="M3410 5580 l0 -410 90 0 89 0 3 108 3 107 125 6 c69 3 141 10 160 14 90 20 182 93 216 172 9 23 16 69 16 113 1 62 -3 84 -25 126 -28 56 -77 103 -135 133 -60 30 -156 41 -355 41 l-187 0 0 -410z m430 237 c103 -36 108 -202 7 -250 -26 -13 -63 -17 -146 -17 l-111 0 0 133 c0 74 3 137 7 140 11 12 206 7 243 -6z"></path><path fill="#021E34" d="M4227 5983 c-4 -3 -7 -188 -7 -410 l0 -403 95 0 94 0 3 113 3 112 85 0 84 0 79 -112 79 -113 99 0 c54 0 99 2 99 5 0 2 -38 59 -85 125 -47 66 -85 124 -85 128 0 4 18 17 40 30 75 43 120 129 120 231 0 152 -92 255 -258 290 -56 12 -434 16 -445 4z m449 -178 c89 -52 85 -188 -7 -235 -31 -16 -59 -20 -149 -20 l-110 0 0 140 0 140 112 0 c100 0 115 -2 154 -25z"></path><path fill="#6B0000" d="M5910 5910 l0 -80 130 0 130 0 0 -330 0 -330 95 0 95 0 0 330 0 330 130 0 130 0 0 80 0 80 -355 0 -355 0 0 -80z"></path><path fill="#6B0000" d="M8607 5983 c-4 -3 -7 -188 -7 -410 l0 -403 299 0 300 0 3 28 c2 15 1 48 0 74 l-4 48 -201 2 -202 3 -3 333 -2 332 -88 0 c-49 0 -92 -3 -95 -7z"></path><path fill="#6B0000" d="M8047 4984 c-17 -17 -5 -34 23 -34 l30 0 0 -75 c0 -68 2 -75 20 -75 18 0 20 7 20 75 l0 75 31 0 c24 0 30 4 27 18 -3 14 -16 18 -74 20 -38 1 -73 0 -77 -4z"></path><path fill="#6B0000" d="M8253 4973 c-87 -44 -49 -173 51 -173 63 0 100 41 94 105 -5 65 -81 101 -145 68z m89 -40 c22 -20 24 -66 3 -83 -40 -33 -109 4 -98 52 11 46 60 62 95 31z"></path><path fill="#6B0000" d="M8475 4976 c-59 -26 -72 -101 -26 -147 80 -79 213 14 160 113 -10 19 -66 48 -91 48 -7 -1 -27 -7 -43 -14z m87 -43 c37 -33 15 -93 -34 -93 -60 0 -87 51 -48 90 24 24 57 26 82 3z"></path><path fill="#6B0000" d="M8657 4984 c-4 -4 -7 -47 -7 -96 l0 -88 64 0 c36 0 68 5 71 10 4 7 12 7 25 0 50 -27 130 0 130 44 0 29 -14 41 -60 53 -21 6 -36 16 -38 27 -3 15 3 17 40 15 33 -3 44 0 46 12 4 23 -60 34 -95 17 -62 -31 -55 -72 18 -99 24 -9 45 -21 47 -28 6 -18 -27 -25 -64 -13 -21 6 -34 6 -34 1 0 -6 -24 -9 -52 -7 l-53 3 -5 74 c-5 68 -15 92 -33 75z"></path><path fill="#6B0000" d="M9063 4980 c-12 -5 -27 -18 -33 -29 -16 -31 3 -57 52 -73 58 -20 57 -43 -2 -44 -63 -1 -68 -3 -46 -19 45 -34 136 -8 136 39 0 29 -20 46 -63 55 -19 4 -33 14 -35 25 -3 15 2 17 40 15 33 -3 44 0 46 12 2 11 -7 18 -29 23 -37 7 -38 7 -66 -4z"></path><path fill="#6B0000" d="M9178 4984 c-13 -12 5 -34 28 -34 23 0 24 -3 24 -75 0 -73 1 -75 25 -75 24 0 25 2 25 74 0 74 0 75 28 78 16 2 27 9 27 18 0 12 -16 16 -75 18 -42 1 -79 0 -82 -4z"></path><path fill="#6B0000" d="M9394 4974 c-59 -29 -71 -98 -25 -145 80 -79 213 14 160 113 -10 19 -65 48 -91 48 -7 0 -27 -7 -44 -16z m88 -41 c32 -28 23 -70 -21 -93 -20 -10 -27 -9 -50 7 -33 25 -38 56 -12 82 25 25 58 27 83 4z"></path><path fill="#6B0000" d="M9575 4982 c-3 -3 -5 -45 -5 -94 0 -81 2 -88 20 -88 15 0 20 7 20 25 0 18 5 25 19 25 11 0 28 -11 39 -25 11 -14 30 -25 42 -25 l22 0 -20 27 c-20 27 -20 27 0 54 23 31 19 73 -10 87 -20 11 -119 21 -127 14z m104 -46 c16 -19 4 -43 -25 -50 -34 -9 -44 0 -44 35 0 25 4 29 29 29 16 0 34 -6 40 -14z"></path><path fill="#6B0000" d="M9760 4895 l0 -95 70 0 c56 0 70 3 70 15 0 11 -12 15 -50 15 -47 0 -50 2 -50 25 0 23 4 25 46 25 59 0 55 24 -4 28 -33 3 -42 7 -42 22 0 15 9 19 48 22 34 2 47 7 47 18 0 12 -15 16 -67 18 l-68 3 0 -96z"></path></g></svg>